# xmcd
#
# Track frame offsets: 
#        150
#        12583
#        32033
#        52635
#        64066
#        77506
#        88777
#        104649
#        114598
#        124197
#        138868
#        147888
#        163006
#        179165
#        189373
#        203958
#        211838
#
# Disc length: 3014 seconds
#
# Revision: 0
# Processed by: cddbd v1.5.2PL0 Copyright (c) Steve Scherf et al.
# Submitted via: ExactAudioCopy v0.95b4
#
DISCID=ef0bc411
DTITLE=Peter Narváez - Some Good Blues
DYEAR=2002
DGENRE=Blues
TTITLE0=Make Some Time (Beeper Blues)
TTITLE1=Oganically Grown
TTITLE2=Maine 
TTITLE3=Proper Thing Bounce
TTITLE4=The Stove
TTITLE5=Hoodoo Doctor (Self Esteem Blues)
TTITLE6=Your Cigarettes and Coffee 
TTITLE7=Black Fly Moan
TTITLE8=Time Alone With You
TTITLE9=Your Grate Needs Coal
TTITLE10=Curmudgeon Baby Blues 
TTITLE11=Mean and Dirty (Low Down and Ugly too)
TTITLE12=Airport Blues
TTITLE13=My Wife Drove me From the Door
TTITLE14=Bulldozer Blues
TTITLE15=Fat Cats (Keep Getting Fatter)
TTITLE16=Bad Blood Mama
EXTD=
EXTT0=
EXTT1=
EXTT2=
EXTT3=
EXTT4=
EXTT5=
EXTT6=
EXTT7=
EXTT8=
EXTT9=
EXTT10=
EXTT11=
EXTT12=
EXTT13=
EXTT14=
EXTT15=
EXTT16=
PLAYORDER=
